<svg xmlns="http://www.w3.org/2000/svg" viewBox="0 0 1600 900" font-family="'Segoe UI', system-ui, -apple-system, sans-serif">
  <defs>
    <!-- Background grid pattern -->
    <pattern id="grid" width="40" height="40" patternUnits="userSpaceOnUse">
      <path d="M 40 0 L 0 0 0 40" fill="none" stroke="#1a1a2e" stroke-width="0.5"/>
    </pattern>
    <!-- Circuit decoration pattern -->
    <pattern id="circuit" width="200" height="200" patternUnits="userSpaceOnUse">
      <circle cx="0" cy="0" r="2" fill="#1a2a3a" opacity="0.4"/>
      <circle cx="200" cy="0" r="2" fill="#1a2a3a" opacity="0.4"/>
      <circle cx="0" cy="200" r="2" fill="#1a2a3a" opacity="0.4"/>
      <circle cx="200" cy="200" r="2" fill="#1a2a3a" opacity="0.4"/>
      <circle cx="100" cy="100" r="1.5" fill="#1a2a3a" opacity="0.3"/>
    </pattern>
    <!-- Glow filters -->
    <filter id="glowCyan" x="-20%" y="-20%" width="140%" height="140%">
      <feGaussianBlur stdDeviation="4" result="blur"/>
      <feComposite in="SourceGraphic" in2="blur" operator="over"/>
    </filter>
    <filter id="glowMagenta" x="-20%" y="-20%" width="140%" height="140%">
      <feGaussianBlur stdDeviation="4" result="blur"/>
      <feComposite in="SourceGraphic" in2="blur" operator="over"/>
    </filter>
    <filter id="glowAmber" x="-20%" y="-20%" width="140%" height="140%">
      <feGaussianBlur stdDeviation="4" result="blur"/>
      <feComposite in="SourceGraphic" in2="blur" operator="over"/>
    </filter>
    <filter id="shadow">
      <feDropShadow dx="0" dy="2" stdDeviation="6" flood-color="#000" flood-opacity="0.5"/>
    </filter>
    <!-- Gradients -->
    <linearGradient id="bgGrad" x1="0%" y1="0%" x2="100%" y2="100%">
      <stop offset="0%" stop-color="#0a0a0f"/>
      <stop offset="50%" stop-color="#0f1018"/>
      <stop offset="100%" stop-color="#141420"/>
    </linearGradient>
    <linearGradient id="arrowGradCyan" x1="0%" y1="0%" x2="100%" y2="0%">
      <stop offset="0%" stop-color="#0891b2" stop-opacity="0.3"/>
      <stop offset="50%" stop-color="#22d3ee"/>
      <stop offset="100%" stop-color="#0891b2" stop-opacity="0.3"/>
    </linearGradient>
    <linearGradient id="arrowGradMagenta" x1="0%" y1="0%" x2="100%" y2="0%">
      <stop offset="0%" stop-color="#a855f7" stop-opacity="0.3"/>
      <stop offset="50%" stop-color="#d946ef"/>
      <stop offset="100%" stop-color="#a855f7" stop-opacity="0.3"/>
    </linearGradient>
    <linearGradient id="arrowGradAmber" x1="0%" y1="0%" x2="100%" y2="0%">
      <stop offset="0%" stop-color="#d97706" stop-opacity="0.3"/>
      <stop offset="50%" stop-color="#fbbf24"/>
      <stop offset="100%" stop-color="#d97706" stop-opacity="0.3"/>
    </linearGradient>
    <linearGradient id="titleUnderline" x1="0%" y1="0%" x2="100%" y2="0%">
      <stop offset="0%" stop-color="#22d3ee" stop-opacity="0"/>
      <stop offset="20%" stop-color="#22d3ee"/>
      <stop offset="50%" stop-color="#d946ef"/>
      <stop offset="80%" stop-color="#fbbf24"/>
      <stop offset="100%" stop-color="#fbbf24" stop-opacity="0"/>
    </linearGradient>
    <!-- Convergence gradient for center -->
    <radialGradient id="convergenceGlow" cx="50%" cy="55%" r="25%">
      <stop offset="0%" stop-color="#22d3ee" stop-opacity="0.08"/>
      <stop offset="100%" stop-color="#22d3ee" stop-opacity="0"/>
    </radialGradient>
  </defs>

  <!-- Background -->
  <rect width="1600" height="900" fill="url(#bgGrad)"/>
  <rect width="1600" height="900" fill="url(#grid)"/>
  <rect width="1600" height="900" fill="url(#circuit)"/>
  <rect width="1600" height="900" fill="url(#convergenceGlow)"/>

  <!-- Decorative corner circuits -->
  <g stroke="#1e3a4a" stroke-width="1" fill="none" opacity="0.5">
    <path d="M 0 60 L 30 60 L 30 30 L 60 30 L 60 0"/>
    <path d="M 0 80 L 50 80 L 50 50 L 80 50 L 80 0"/>
    <circle cx="30" cy="60" r="3" fill="#22d3ee" opacity="0.4"/>
    <circle cx="60" cy="30" r="3" fill="#22d3ee" opacity="0.4"/>

    <path d="M 1600 60 L 1570 60 L 1570 30 L 1540 30 L 1540 0"/>
    <path d="M 1600 80 L 1550 80 L 1550 50 L 1520 50 L 1520 0"/>
    <circle cx="1570" cy="60" r="3" fill="#fbbf24" opacity="0.4"/>
    <circle cx="1540" cy="30" r="3" fill="#fbbf24" opacity="0.4"/>

    <path d="M 0 840 L 30 840 L 30 870 L 60 870 L 60 900"/>
    <path d="M 0 820 L 50 820 L 50 850 L 80 850 L 80 900"/>
    <circle cx="30" cy="840" r="3" fill="#d946ef" opacity="0.4"/>

    <path d="M 1600 840 L 1570 840 L 1570 870 L 1540 870 L 1540 900"/>
    <path d="M 1600 820 L 1550 820 L 1550 850 L 1520 850 L 1520 900"/>
    <circle cx="1570" cy="840" r="3" fill="#d946ef" opacity="0.4"/>
  </g>

  <!-- ============ TITLE SECTION ============ -->
  <text x="800" y="58" text-anchor="middle" fill="#f5f5f5" font-size="38" font-weight="700" letter-spacing="-0.5">
    Le Continuum d'Int&#xe9;gration
  </text>
  <text x="800" y="88" text-anchor="middle" fill="#9ca3af" font-size="17" font-weight="400" letter-spacing="0.5">
    Du Silo &#xe0; l'Entreprise Agentique &#x2014; Ma&#xee;triser le spectre App&#x2011;Data&#x2011;Event
  </text>
  <line x1="400" y1="104" x2="1200" y2="104" stroke="url(#titleUnderline)" stroke-width="1.5"/>

  <!-- ============ LEFT: SILOS (BEFORE) ============ -->
  <g transform="translate(70, 140)">
    <text x="130" y="20" text-anchor="middle" fill="#6b7280" font-size="13" font-weight="600" letter-spacing="2">L'H&#xc9;RITAGE</text>
    <text x="130" y="40" text-anchor="middle" fill="#4b5563" font-size="11">(Silos Isol&#xe9;s)</text>

    <!-- Silo boxes -->
    <g filter="url(#shadow)">
      <rect x="20" y="60" width="100" height="70" rx="6" fill="#1a1a1a" stroke="#374151" stroke-width="1.5"/>
      <text x="70" y="90" text-anchor="middle" fill="#6b7280" font-size="10">APP-SILO</text>
      <text x="70" y="106" text-anchor="middle" fill="#4b5563" font-size="9">Legacy</text>
      <rect x="140" y="60" width="100" height="70" rx="6" fill="#1a1a1a" stroke="#374151" stroke-width="1.5"/>
      <text x="190" y="90" text-anchor="middle" fill="#6b7280" font-size="10">DATA-SILO</text>
      <text x="190" y="106" text-anchor="middle" fill="#4b5563" font-size="9">Batch 24h</text>
      <rect x="80" y="150" width="100" height="70" rx="6" fill="#1a1a1a" stroke="#374151" stroke-width="1.5"/>
      <text x="130" y="180" text-anchor="middle" fill="#6b7280" font-size="10">EVENT-SILO</text>
      <text x="130" y="196" text-anchor="middle" fill="#4b5563" font-size="9">D&#xe9;connect&#xe9;</text>
    </g>

    <!-- CSV arrows between silos -->
    <g stroke="#374151" stroke-width="1" stroke-dasharray="4,3" fill="none">
      <line x1="120" y1="105" x2="140" y2="105"/>
      <line x1="70" y1="130" x2="100" y2="150"/>
      <line x1="190" y1="130" x2="160" y2="150"/>
    </g>
    <text x="133" y="118" text-anchor="middle" fill="#4b5563" font-size="8">CSV/XML</text>

    <!-- Friction indicators -->
    <g transform="translate(0, 240)">
      <circle cx="30" cy="10" r="5" fill="#ef4444" opacity="0.7"/>
      <text x="42" y="14" fill="#9ca3af" font-size="10">Friction informationnelle</text>
      <circle cx="30" cy="30" r="5" fill="#ef4444" opacity="0.7"/>
      <text x="42" y="34" fill="#9ca3af" font-size="10">Latence 24h+ (fichiers plats)</text>
      <circle cx="30" cy="50" r="5" fill="#ef4444" opacity="0.7"/>
      <text x="42" y="54" fill="#9ca3af" font-size="10">Incoh&#xe9;rence des donn&#xe9;es</text>
    </g>
  </g>

  <!-- ============ LARGE ARROW FROM LEFT TO CENTER ============ -->
  <g transform="translate(340, 320)">
    <polygon points="0,20 60,0 60,12 100,12 100,28 60,28 60,40" fill="#374151" opacity="0.5"/>
    <text x="50" y="60" text-anchor="middle" fill="#6b7280" font-size="10" font-style="italic">Transformation</text>
  </g>

  <!-- ============ CENTER: THE CONTINUUM ============ -->
  <!-- Central bracket / flow area -->
  <g transform="translate(460, 130)">
    <text x="340" y="16" text-anchor="middle" fill="#e0e0e0" font-size="15" font-weight="600" letter-spacing="1">LE CONTINUUM D'INT&#xc9;GRATION</text>
    <line x1="140" y1="26" x2="540" y2="26" stroke="#2e2e2e" stroke-width="1"/>

    <!-- ===== DOMAIN 1: APPLICATIONS (LE VERBE) ===== -->
    <g transform="translate(0, 45)">
      <rect x="0" y="0" width="210" height="200" rx="10" fill="#0f1a1f" stroke="#0891b2" stroke-width="1.5" opacity="0.9" filter="url(#shadow)"/>
      <!-- Header bar -->
      <rect x="0" y="0" width="210" height="36" rx="10" fill="#0891b2" opacity="0.15"/>
      <rect x="0" y="20" width="210" height="16" fill="#0891b2" opacity="0.15"/>
      <text x="105" y="24" text-anchor="middle" fill="#22d3ee" font-size="14" font-weight="700">LE VERBE</text>
      <text x="105" y="52" text-anchor="middle" fill="#67e8f9" font-size="11">(Applications)</text>

      <!-- Icon: terminal -->
      <g transform="translate(70, 68)" filter="url(#glowCyan)">
        <rect x="0" y="0" width="70" height="48" rx="6" fill="none" stroke="#22d3ee" stroke-width="1.5"/>
        <text x="12" y="20" fill="#22d3ee" font-size="12" font-family="monospace">&gt;_</text>
        <line x1="10" y1="30" x2="50" y2="30" stroke="#22d3ee" stroke-width="0.8" opacity="0.5"/>
        <line x1="10" y1="36" x2="35" y2="36" stroke="#22d3ee" stroke-width="0.8" opacity="0.3"/>
      </g>

      <!-- Details -->
      <text x="105" y="138" text-anchor="middle" fill="#9ca3af" font-size="10">Focus : Action Imm&#xe9;diate</text>
      <text x="105" y="154" text-anchor="middle" fill="#9ca3af" font-size="10">Couplage : Fort (Synchrone)</text>
      <text x="105" y="170" text-anchor="middle" fill="#67e8f9" font-size="10" font-weight="600">Request / Response</text>
      <text x="105" y="190" text-anchor="middle" fill="#4b5563" font-size="9">API Gateway &#x2022; BFF &#x2022; gRPC</text>
    </g>

    <!-- ===== DOMAIN 2: DONN&#xc9;ES (LE NOM) ===== -->
    <g transform="translate(235, 45)">
      <rect x="0" y="0" width="210" height="200" rx="10" fill="#1a0f1f" stroke="#a855f7" stroke-width="1.5" opacity="0.9" filter="url(#shadow)"/>
      <rect x="0" y="0" width="210" height="36" rx="10" fill="#a855f7" opacity="0.15"/>
      <rect x="0" y="20" width="210" height="16" fill="#a855f7" opacity="0.15"/>
      <text x="105" y="24" text-anchor="middle" fill="#d946ef" font-size="14" font-weight="700">LE NOM</text>
      <text x="105" y="52" text-anchor="middle" fill="#e879f9" font-size="11">(Donn&#xe9;es)</text>

      <!-- Icon: database -->
      <g transform="translate(75, 68)" filter="url(#glowMagenta)">
        <ellipse cx="30" cy="8" rx="28" ry="8" fill="none" stroke="#d946ef" stroke-width="1.5"/>
        <path d="M 2 8 L 2 38 Q 2 46 30 46 Q 58 46 58 38 L 58 8" fill="none" stroke="#d946ef" stroke-width="1.5"/>
        <ellipse cx="30" cy="22" rx="28" ry="6" fill="none" stroke="#d946ef" stroke-width="0.8" opacity="0.5"/>
        <ellipse cx="30" cy="34" rx="28" ry="6" fill="none" stroke="#d946ef" stroke-width="0.8" opacity="0.3"/>
      </g>

      <text x="105" y="138" text-anchor="middle" fill="#9ca3af" font-size="10">Focus : &#xc9;tat &amp; V&#xe9;rit&#xe9; Distribu&#xe9;e</text>
      <text x="105" y="154" text-anchor="middle" fill="#9ca3af" font-size="10">Couplage : Interm&#xe9;diaire</text>
      <text x="105" y="170" text-anchor="middle" fill="#e879f9" font-size="10" font-weight="600">Replication / CDC</text>
      <text x="105" y="190" text-anchor="middle" fill="#4b5563" font-size="9">Data Mesh &#x2022; CQRS &#x2022; Outbox</text>
    </g>

    <!-- ===== DOMAIN 3: &#xc9;V&#xc9;NEMENTS (LE SIGNAL) ===== -->
    <g transform="translate(470, 45)">
      <rect x="0" y="0" width="210" height="200" rx="10" fill="#1a1508" stroke="#d97706" stroke-width="1.5" opacity="0.9" filter="url(#shadow)"/>
      <rect x="0" y="0" width="210" height="36" rx="10" fill="#d97706" opacity="0.15"/>
      <rect x="0" y="20" width="210" height="16" fill="#d97706" opacity="0.15"/>
      <text x="105" y="24" text-anchor="middle" fill="#fbbf24" font-size="14" font-weight="700">LE SIGNAL</text>
      <text x="105" y="52" text-anchor="middle" fill="#fcd34d" font-size="11">(&#xc9;v&#xe9;nements)</text>

      <!-- Icon: lightning/signal -->
      <g transform="translate(75, 68)" filter="url(#glowAmber)">
        <circle cx="30" cy="24" r="22" fill="none" stroke="#fbbf24" stroke-width="1.2" opacity="0.4"/>
        <circle cx="30" cy="24" r="15" fill="none" stroke="#fbbf24" stroke-width="1.2" opacity="0.6"/>
        <path d="M 26 14 L 22 26 L 30 26 L 28 36 L 38 22 L 30 22 L 34 14 Z" fill="#fbbf24" opacity="0.9"/>
      </g>

      <text x="105" y="138" text-anchor="middle" fill="#9ca3af" font-size="10">Focus : R&#xe9;activit&#xe9; &amp; Notification</text>
      <text x="105" y="154" text-anchor="middle" fill="#9ca3af" font-size="10">Couplage : D&#xe9;couplage Maximal</text>
      <text x="105" y="170" text-anchor="middle" fill="#fcd34d" font-size="10" font-weight="600">Pub / Sub</text>
      <text x="105" y="190" text-anchor="middle" fill="#4b5563" font-size="9">Kafka &#x2022; Saga &#x2022; Event Sourcing</text>
    </g>

    <!-- Connecting arrows between domains -->
    <g stroke="#2e2e2e" stroke-width="1.5" fill="none">
      <line x1="210" y1="170" x2="235" y2="170" stroke-dasharray="5,3"/>
      <line x1="445" y1="170" x2="470" y2="170" stroke-dasharray="5,3"/>
    </g>

    <!-- Spectrum bar below -->
    <g transform="translate(0, 265)">
      <rect x="0" y="0" width="680" height="8" rx="4" fill="#1a1a1a"/>
      <rect x="0" y="0" width="227" height="8" rx="4" fill="#0891b2" opacity="0.6"/>
      <rect x="227" y="0" width="226" height="8" fill="#a855f7" opacity="0.6"/>
      <rect x="453" y="0" width="227" height="8" rx="4" fill="#d97706" opacity="0.6"/>

      <text x="0" y="24" fill="#22d3ee" font-size="9" font-weight="600">COUPLAGE FORT</text>
      <text x="340" y="24" text-anchor="middle" fill="#9ca3af" font-size="9">&#x25c4;&#x2500;&#x2500;&#x2500;&#x2500; Spectre d'int&#xe9;gration &#x2500;&#x2500;&#x2500;&#x2500;&#x25ba;</text>
      <text x="680" y="24" text-anchor="end" fill="#fbbf24" font-size="9" font-weight="600">D&#xc9;COUPLAGE MAXIMAL</text>
    </g>
  </g>

  <!-- ============ RIGHT: ECOSYSTEM (AFTER) ============ -->
  <g transform="translate(1190, 130)">
    <!-- Arrow from center to right -->
    <g transform="translate(-50, 190)">
      <polygon points="0,20 60,0 60,12 100,12 100,28 60,28 60,40" fill="#22d3ee" opacity="0.3"/>
      <text x="50" y="60" text-anchor="middle" fill="#22d3ee" font-size="10" font-style="italic" opacity="0.8">Convergence</text>
    </g>

    <text x="180" y="16" text-anchor="middle" fill="#22d3ee" font-size="13" font-weight="600" letter-spacing="2">&#xc9;COSYST&#xc8;ME</text>
    <text x="180" y="34" text-anchor="middle" fill="#0891b2" font-size="10">(Moderne &amp; Agentique)</text>

    <!-- Interconnected mesh visual -->
    <g transform="translate(100, 55)" opacity="0.9">
      <!-- Central mesh -->
      <circle cx="80" cy="80" r="70" fill="none" stroke="#22d3ee" stroke-width="0.8" opacity="0.2"/>
      <circle cx="80" cy="80" r="50" fill="none" stroke="#d946ef" stroke-width="0.8" opacity="0.2"/>
      <circle cx="80" cy="80" r="30" fill="none" stroke="#fbbf24" stroke-width="0.8" opacity="0.2"/>

      <!-- Nodes -->
      <circle cx="80" cy="15" r="8" fill="#0f1a1f" stroke="#22d3ee" stroke-width="1.5"/>
      <text x="80" y="18" text-anchor="middle" fill="#22d3ee" font-size="7">API</text>

      <circle cx="145" cy="50" r="8" fill="#1a0f1f" stroke="#d946ef" stroke-width="1.5"/>
      <text x="145" y="53" text-anchor="middle" fill="#d946ef" font-size="7">DB</text>

      <circle cx="145" cy="110" r="8" fill="#1a1508" stroke="#fbbf24" stroke-width="1.5"/>
      <text x="145" y="113" text-anchor="middle" fill="#fbbf24" font-size="6">EVT</text>

      <circle cx="80" cy="145" r="8" fill="#0f1a1f" stroke="#22d3ee" stroke-width="1.5"/>
      <text x="80" y="148" text-anchor="middle" fill="#22d3ee" font-size="7">SVC</text>

      <circle cx="15" cy="110" r="8" fill="#1a0f1f" stroke="#d946ef" stroke-width="1.5"/>
      <text x="15" y="113" text-anchor="middle" fill="#d946ef" font-size="6">CDC</text>

      <circle cx="15" cy="50" r="8" fill="#1a1508" stroke="#fbbf24" stroke-width="1.5"/>
      <text x="15" y="53" text-anchor="middle" fill="#fbbf24" font-size="6">MSG</text>

      <!-- AI Agent at center -->
      <circle cx="80" cy="80" r="14" fill="#141420" stroke="#a78bfa" stroke-width="2"/>
      <text x="80" y="77" text-anchor="middle" fill="#c4b5fd" font-size="7" font-weight="700">AI</text>
      <text x="80" y="87" text-anchor="middle" fill="#a78bfa" font-size="6">Agent</text>

      <!-- Connection lines -->
      <g stroke-width="0.8" opacity="0.4">
        <line x1="80" y1="29" x2="80" y2="66" stroke="#22d3ee"/>
        <line x1="131" y1="55" x2="94" y2="74" stroke="#d946ef"/>
        <line x1="131" y1="106" x2="94" y2="86" stroke="#fbbf24"/>
        <line x1="80" y1="131" x2="80" y2="94" stroke="#22d3ee"/>
        <line x1="29" y1="106" x2="66" y2="86" stroke="#d946ef"/>
        <line x1="29" y1="55" x2="66" y2="74" stroke="#fbbf24"/>
        <!-- Cross connections -->
        <line x1="80" y1="29" x2="131" y2="50" stroke="#9ca3af" stroke-dasharray="3,3"/>
        <line x1="80" y1="29" x2="29" y2="50" stroke="#9ca3af" stroke-dasharray="3,3"/>
        <line x1="131" y1="55" x2="131" y2="106" stroke="#9ca3af" stroke-dasharray="3,3"/>
        <line x1="15" y1="55" x2="15" y2="106" stroke="#9ca3af" stroke-dasharray="3,3"/>
        <line x1="80" y1="131" x2="131" y2="110" stroke="#9ca3af" stroke-dasharray="3,3"/>
        <line x1="80" y1="131" x2="29" y2="110" stroke="#9ca3af" stroke-dasharray="3,3"/>
      </g>
    </g>

    <!-- Ecosystem benefits -->
    <g transform="translate(10, 230)">
      <circle cx="15" cy="10" r="5" fill="#059669" opacity="0.8"/>
      <text x="27" y="14" fill="#9ca3af" font-size="10">Connexions fluides, temps r&#xe9;el</text>
      <circle cx="15" cy="30" r="5" fill="#059669" opacity="0.8"/>
      <text x="27" y="34" fill="#9ca3af" font-size="10">Gouvernance f&#xe9;d&#xe9;r&#xe9;e</text>
      <circle cx="15" cy="50" r="5" fill="#059669" opacity="0.8"/>
      <text x="27" y="54" fill="#9ca3af" font-size="10">Pr&#xea;t pour l'IA agentique</text>
    </g>
  </g>

  <!-- ============ BOTTOM SECTION: DECISION MATRIX ============ -->
  <g transform="translate(60, 530)">
    <text x="0" y="0" fill="#e0e0e0" font-size="14" font-weight="600">Matrice de D&#xe9;cision</text>
    <line x1="0" y1="10" x2="200" y2="10" stroke="#2e2e2e" stroke-width="1"/>

    <!-- Table -->
    <g transform="translate(0, 25)">
      <!-- Header -->
      <rect x="0" y="0" width="440" height="28" rx="4" fill="#1a1a1a"/>
      <text x="120" y="19" text-anchor="middle" fill="#9ca3af" font-size="10" font-weight="600">CRIT&#xc8;RE</text>
      <text x="300" y="19" text-anchor="middle" fill="#9ca3af" font-size="10" font-weight="600">DOMAINE</text>
      <text x="400" y="19" text-anchor="middle" fill="#9ca3af" font-size="10" font-weight="600">PATTERN</text>

      <!-- Row 1 -->
      <rect x="0" y="32" width="440" height="26" rx="2" fill="#0f1a1f" opacity="0.5"/>
      <text x="120" y="50" text-anchor="middle" fill="#e0e0e0" font-size="10">Latence Critique (&lt; 1s)</text>
      <rect x="255" y="37" width="90" height="16" rx="8" fill="#0891b2" opacity="0.3"/>
      <text x="300" y="50" text-anchor="middle" fill="#22d3ee" font-size="9" font-weight="600">APP (Le Verbe)</text>
      <text x="400" y="50" text-anchor="middle" fill="#9ca3af" font-size="9">API REST / gRPC</text>

      <!-- Row 2 -->
      <rect x="0" y="62" width="440" height="26" rx="2" fill="#141420" opacity="0.3"/>
      <text x="120" y="80" text-anchor="middle" fill="#e0e0e0" font-size="10">Propagation de Donn&#xe9;es</text>
      <rect x="255" y="67" width="90" height="16" rx="8" fill="#a855f7" opacity="0.2"/>
      <text x="300" y="80" text-anchor="middle" fill="#d946ef" font-size="9" font-weight="600">DATA (Le Nom)</text>
      <text x="400" y="80" text-anchor="middle" fill="#9ca3af" font-size="9">CDC / Outbox</text>

      <!-- Row 3 -->
      <rect x="0" y="92" width="440" height="26" rx="2" fill="#0f1a1f" opacity="0.5"/>
      <text x="120" y="110" text-anchor="middle" fill="#e0e0e0" font-size="10">Processus Long / Complexe</text>
      <rect x="255" y="97" width="90" height="16" rx="8" fill="#d97706" opacity="0.2"/>
      <text x="300" y="110" text-anchor="middle" fill="#fbbf24" font-size="9" font-weight="600">EVENT (Le Signal)</text>
      <text x="400" y="110" text-anchor="middle" fill="#9ca3af" font-size="9">Saga Pattern</text>

      <!-- Row 4 -->
      <rect x="0" y="122" width="440" height="26" rx="2" fill="#141420" opacity="0.3"/>
      <text x="120" y="140" text-anchor="middle" fill="#e0e0e0" font-size="10">Analytique Temps R&#xe9;el</text>
      <rect x="255" y="127" width="90" height="16" rx="8" fill="#6b7280" opacity="0.3"/>
      <text x="300" y="140" text-anchor="middle" fill="#e0e0e0" font-size="9" font-weight="600">DATA + EVENT</text>
      <text x="400" y="140" text-anchor="middle" fill="#9ca3af" font-size="9">Materialized View</text>
    </g>

    <!-- Anti-patterns warning -->
    <g transform="translate(0, 185)">
      <rect x="0" y="0" width="440" height="34" rx="6" fill="#1a0f0f" stroke="#7f1d1d" stroke-width="1" opacity="0.8"/>
      <text x="20" y="14" fill="#ef4444" font-size="10" font-weight="700">&#x26a0; ANTI-PATRONS</text>
      <text x="20" y="28" fill="#9ca3af" font-size="9">Distributed Monolith (Couplage DB) &#x2022; Event Soup (&#xc9;v&#xe9;nements non gouvern&#xe9;s)</text>
    </g>
  </g>

  <!-- ============ BOTTOM CENTER: GOLDEN RULES ============ -->
  <g transform="translate(580, 530)">
    <text x="0" y="0" fill="#e0e0e0" font-size="14" font-weight="600">Les R&#xe8;gles d'Or</text>
    <line x1="0" y1="10" x2="180" y2="10" stroke="#2e2e2e" stroke-width="1"/>

    <g transform="translate(0, 30)">
      <rect x="0" y="0" width="380" height="190" rx="10" fill="#1a1a1a" stroke="#d97706" stroke-width="1" opacity="0.7"/>

      <g transform="translate(20, 25)">
        <circle cx="8" cy="0" r="5" fill="#d97706" opacity="0.6"/>
        <text x="8" y="4" text-anchor="middle" fill="#1a1a1a" font-size="8" font-weight="700">1</text>
        <text x="22" y="4" fill="#fbbf24" font-size="11" font-weight="600">Jamais d'&#xe9;criture directe inter-service.</text>
      </g>
      <g transform="translate(20, 55)">
        <circle cx="8" cy="0" r="5" fill="#d97706" opacity="0.6"/>
        <text x="8" y="4" text-anchor="middle" fill="#1a1a1a" font-size="8" font-weight="700">2</text>
        <text x="22" y="4" fill="#fbbf24" font-size="11" font-weight="600">Tout changement d'&#xe9;tat &#xe9;met un &#xe9;v&#xe9;nement.</text>
      </g>
      <g transform="translate(20, 85)">
        <circle cx="8" cy="0" r="5" fill="#d97706" opacity="0.6"/>
        <text x="8" y="4" text-anchor="middle" fill="#1a1a1a" font-size="8" font-weight="700">3</text>
        <text x="22" y="4" fill="#fbbf24" font-size="11" font-weight="600">Lecture = Synchrone (API).</text>
      </g>
      <g transform="translate(20, 115)">
        <circle cx="8" cy="0" r="5" fill="#d97706" opacity="0.6"/>
        <text x="8" y="4" text-anchor="middle" fill="#1a1a1a" font-size="8" font-weight="700">4</text>
        <text x="22" y="4" fill="#fbbf24" font-size="11" font-weight="600">&#xc9;criture = Asynchrone (Event).</text>
      </g>

      <line x1="20" y1="138" x2="360" y2="138" stroke="#2e2e2e" stroke-width="0.5"/>
      <text x="190" y="162" text-anchor="middle" fill="#9ca3af" font-size="10" font-style="italic">Strat&#xe9;gie hybride : combiner les trois domaines</text>
      <text x="190" y="178" text-anchor="middle" fill="#9ca3af" font-size="10" font-style="italic">selon la latence et la coh&#xe9;rence requises.</text>
    </g>
  </g>

  <!-- ============ BOTTOM RIGHT: RESILIENCE & OBSERVABILITY ============ -->
  <g transform="translate(1040, 530)">
    <text x="0" y="0" fill="#e0e0e0" font-size="14" font-weight="600">R&#xe9;silience &amp; Observabilit&#xe9;</text>
    <line x1="0" y1="10" x2="240" y2="10" stroke="#2e2e2e" stroke-width="1"/>

    <!-- Resilience -->
    <g transform="translate(0, 30)">
      <rect x="0" y="0" width="240" height="88" rx="8" fill="#1a0f0f" stroke="#dc2626" stroke-width="1" opacity="0.6"/>
      <text x="120" y="20" text-anchor="middle" fill="#fca5a5" font-size="11" font-weight="600">D&#xe9;fense en profondeur</text>

      <g transform="translate(15, 34)">
        <rect x="0" y="0" width="62" height="20" rx="10" fill="#dc2626" opacity="0.2"/>
        <text x="31" y="14" text-anchor="middle" fill="#fca5a5" font-size="9">Circuit Breaker</text>
      </g>
      <g transform="translate(85, 34)">
        <rect x="0" y="0" width="62" height="20" rx="10" fill="#dc2626" opacity="0.2"/>
        <text x="31" y="14" text-anchor="middle" fill="#fca5a5" font-size="9">Bulkhead</text>
      </g>
      <g transform="translate(157, 34)">
        <rect x="0" y="0" width="62" height="20" rx="10" fill="#dc2626" opacity="0.2"/>
        <text x="31" y="14" text-anchor="middle" fill="#fca5a5" font-size="9">Fallback</text>
      </g>
      <text x="120" y="74" text-anchor="middle" fill="#6b7280" font-size="9">Op&#xe9;rer quand tout &#xe9;choue</text>
    </g>

    <!-- Observability -->
    <g transform="translate(0, 130)">
      <rect x="0" y="0" width="240" height="88" rx="8" fill="#0f1a1f" stroke="#0891b2" stroke-width="1" opacity="0.6"/>
      <text x="120" y="20" text-anchor="middle" fill="#67e8f9" font-size="11" font-weight="600">OpenTelemetry</text>

      <g transform="translate(10, 34)">
        <rect x="0" y="0" width="66" height="20" rx="10" fill="#0891b2" opacity="0.2"/>
        <text x="33" y="14" text-anchor="middle" fill="#67e8f9" font-size="9">Traces (O&#xf9;?)</text>
      </g>
      <g transform="translate(84, 34)">
        <rect x="0" y="0" width="76" height="20" rx="10" fill="#0891b2" opacity="0.2"/>
        <text x="38" y="14" text-anchor="middle" fill="#67e8f9" font-size="9">M&#xe9;triques (Quoi?)</text>
      </g>
      <g transform="translate(168, 34)">
        <rect x="0" y="0" width="62" height="20" rx="10" fill="#0891b2" opacity="0.2"/>
        <text x="31" y="14" text-anchor="middle" fill="#67e8f9" font-size="9">Logs (Pourquoi?)</text>
      </g>
      <text x="120" y="74" text-anchor="middle" fill="#6b7280" font-size="9">Visibilit&#xe9; de bout en bout</text>
    </g>
  </g>

  <!-- ============ ENTERPRISE AGENTIQUE BADGE ============ -->
  <g transform="translate(1310, 530)">
    <text x="0" y="0" fill="#e0e0e0" font-size="14" font-weight="600">Entreprise Agentique</text>
    <line x1="0" y1="10" x2="220" y2="10" stroke="#2e2e2e" stroke-width="1"/>

    <g transform="translate(0, 30)">
      <rect x="0" y="0" width="240" height="190" rx="10" fill="#141420" stroke="#a78bfa" stroke-width="1.5" opacity="0.8"/>

      <!-- Brain/AI icon -->
      <g transform="translate(90, 20)">
        <circle cx="30" cy="28" r="24" fill="none" stroke="#a78bfa" stroke-width="1.5" opacity="0.6"/>
        <circle cx="30" cy="28" r="16" fill="#141420" stroke="#c4b5fd" stroke-width="1.2"/>
        <path d="M 22 24 Q 26 18 30 24 Q 34 18 38 24" fill="none" stroke="#c4b5fd" stroke-width="1.2"/>
        <path d="M 22 32 Q 26 38 30 32 Q 34 38 38 32" fill="none" stroke="#c4b5fd" stroke-width="1.2"/>
      </g>

      <text x="120" y="88" text-anchor="middle" fill="#c4b5fd" font-size="11" font-weight="600">ReAct Pattern</text>
      <text x="120" y="106" text-anchor="middle" fill="#9ca3af" font-size="9">Thought &#x2192; Action &#x2192; Observation</text>

      <line x1="20" y1="118" x2="220" y2="118" stroke="#2e2e2e" stroke-width="0.5"/>

      <text x="120" y="136" text-anchor="middle" fill="#a78bfa" font-size="10" font-weight="600">Function Calling + MCP</text>
      <text x="120" y="154" text-anchor="middle" fill="#9ca3af" font-size="9">APIs &amp; &#xc9;v&#xe9;nements = Interface des Agents</text>

      <line x1="20" y1="166" x2="220" y2="166" stroke="#2e2e2e" stroke-width="0.5"/>
      <text x="120" y="182" text-anchor="middle" fill="#6b7280" font-size="9" font-style="italic">L'interop&#xe9;rabilit&#xe9; est le pr&#xe9;requis.</text>
    </g>
  </g>

  <!-- ============ BOTTOM QUOTE ============ -->
  <g transform="translate(800, 855)">
    <text x="0" y="0" text-anchor="middle" fill="#9ca3af" font-size="14" font-style="italic" letter-spacing="0.3">
      &#xab; L'architecture d'int&#xe9;gration parfaite n'existe pas ; seule existe celle qui &#xe9;volue. &#xbb;
    </text>
  </g>

  <!-- Footer -->
  <text x="800" y="888" text-anchor="middle" fill="#4b5563" font-size="10" letter-spacing="0.5">
    Interop&#xe9;rabilit&#xe9; en &#xc9;cosyst&#xe8;me d'Entreprise &#x2014; Convergence des Architectures d'Int&#xe9;gration / Version 1.0
  </text>
</svg>